<?xml version="1.0" encoding="UTF-8"?>
<!DOCTYPE svg PUBLIC "-//W3C//DTD SVG 1.1//EN" "http://www.w3.org/Graphics/SVG/1.1/DTD/svg11.dtd">
<svg xmlns="http://www.w3.org/2000/svg" version="1.1" width="208px" height="208px" style="shape-rendering:geometricPrecision; text-rendering:geometricPrecision; image-rendering:optimizeQuality; fill-rule:evenodd; clip-rule:evenodd" xmlns:xlink="http://www.w3.org/1999/xlink">
<g><path style="opacity:1" fill="#e3dfe3" d="M 133.5,24.5 C 138.437,27.306 143.437,30.1393 148.5,33C 151.288,34.7186 153.621,36.8852 155.5,39.5C 154.957,39.56 154.624,39.8933 154.5,40.5C 157.659,44.4915 159.993,48.8248 161.5,53.5C 161.5,56.1667 161.5,58.8333 161.5,61.5C 160.069,62.4458 158.736,63.6125 157.5,65C 157.848,67.0545 157.181,69.0545 155.5,71C 152.689,72.6437 150.356,74.8103 148.5,77.5C 146.045,78.3548 143.712,79.3548 141.5,80.5C 145.21,76.7921 148.543,72.7921 151.5,68.5C 153.219,65.2547 155.219,62.088 157.5,59C 157.189,56.4119 156.689,53.5786 156,50.5C 149.128,40.6362 140.294,32.9695 129.5,27.5C 127.852,26.0735 125.852,25.2401 123.5,25C 116.213,23.5077 108.88,22.341 101.5,21.5C 95.5321,21.6137 89.8655,22.6137 84.5,24.5C 77.9386,25.6867 71.6053,27.6867 65.5,30.5C 64.8165,30.1373 64.1499,29.8039 63.5,29.5C 63.5,29.1667 63.5,28.8333 63.5,28.5C 65.153,28.3404 66.4863,27.6737 67.5,26.5C 89.2609,18.015 111.261,17.3483 133.5,24.5 Z"/></g>
<g><path style="opacity:1" fill="#f9faf9" d="M 133.5,23.5 C 134.833,24.1667 134.833,24.1667 133.5,23.5 Z"/></g>
<g><path style="opacity:1" fill="#000000" d="M 67.5,26.5 C 66.8333,25.1667 66.8333,25.1667 67.5,26.5 Z"/></g>
<g><path style="opacity:1" fill="#000000" d="M 63.5,28.5 C 62.8333,27.1667 62.8333,27.1667 63.5,28.5 Z"/></g>
<g><path style="opacity:1" fill="#000000" d="M 142.5,27.5 C 143.833,28.1667 143.833,28.1667 142.5,27.5 Z"/></g>
<g><path style="opacity:1" fill="#000000" d="M 61.5,29.5 C 60.8333,28.1667 60.8333,28.1667 61.5,29.5 Z"/></g>
<g><path style="opacity:1" fill="#cabcba" d="M 84.5,24.5 C 86.8568,24.3367 89.1902,24.5034 91.5,25C 90.3044,25.6543 90.3044,26.1543 91.5,26.5C 99.4412,23.5345 106.441,25.0345 112.5,31C 109.635,31.1829 106.969,31.6829 104.5,32.5C 101.167,32.5 97.8333,32.5 94.5,32.5C 92.3385,30.9702 90.0051,30.1368 87.5,30C 82.1667,29.3333 76.8333,29.3333 71.5,30C 68.3672,30.8596 65.7005,32.3596 63.5,34.5C 60.6876,35.8702 57.6876,36.8702 54.5,37.5C 53.209,39.9592 51.209,41.4592 48.5,42C 47.1772,42.8159 46.5106,43.9826 46.5,45.5C 44.8639,46.7489 43.6972,48.4156 43,50.5C 42.5014,54.1516 42.3347,57.8183 42.5,61.5C 41.6862,59.369 41.1862,57.0356 41,54.5C 40.6076,57.1879 40.1076,59.8546 39.5,62.5C 40.1734,64.851 40.8401,67.1843 41.5,69.5C 40.8799,74.9738 40.8799,80.3072 41.5,85.5C 38.3258,74.0194 37.9925,62.3527 40.5,50.5C 41.3382,50.1583 41.6716,49.4916 41.5,48.5C 43.3998,46.3805 45.0664,44.0472 46.5,41.5C 47.1667,41.5 47.5,41.1667 47.5,40.5C 48.1667,40.5 48.5,40.1667 48.5,39.5C 49.1667,39.5 49.5,39.1667 49.5,38.5C 50.1667,38.5 50.5,38.1667 50.5,37.5C 54.1902,34.8015 57.8569,32.1348 61.5,29.5C 62.1667,29.5 62.8333,29.5 63.5,29.5C 64.1499,29.8039 64.8165,30.1373 65.5,30.5C 71.6053,27.6867 77.9386,25.6867 84.5,24.5 Z"/></g>
<g><path style="opacity:1" fill="#887879" d="M 94.5,32.5 C 91.3443,33.4339 88.0109,34.1006 84.5,34.5C 79.3385,33.0694 74.3385,33.5694 69.5,36C 67.3651,37.3811 65.0318,38.3811 62.5,39C 59.9121,42.0962 56.9121,44.5962 53.5,46.5C 53.0825,45.7784 52.4158,45.2784 51.5,45C 53,43.5 54.5,42 56,40.5C 56.3333,40.8333 56.6667,41.1667 57,41.5C 59.8333,39.3333 62.6667,37.1667 65.5,35C 64.9056,34.5357 64.2389,34.369 63.5,34.5C 65.7005,32.3596 68.3672,30.8596 71.5,30C 76.8333,29.3333 82.1667,29.3333 87.5,30C 90.0051,30.1368 92.3385,30.9702 94.5,32.5 Z"/></g>
<g><path style="opacity:1" fill="#e1d2c9" d="M 129.5,27.5 C 124.603,25.9294 119.603,25.4294 114.5,26C 120.106,28.1521 125.772,30.1521 131.5,32C 129.808,33.4007 129.141,35.2341 129.5,37.5C 128.833,37.5 128.167,37.5 127.5,37.5C 123.886,35.2991 119.886,33.9658 115.5,33.5C 111.846,33.0578 108.179,32.7244 104.5,32.5C 106.969,31.6829 109.635,31.1829 112.5,31C 106.441,25.0345 99.4412,23.5345 91.5,26.5C 90.3044,26.1543 90.3044,25.6543 91.5,25C 89.1902,24.5034 86.8568,24.3367 84.5,24.5C 89.8655,22.6137 95.5321,21.6137 101.5,21.5C 108.88,22.341 116.213,23.5077 123.5,25C 125.852,25.2401 127.852,26.0735 129.5,27.5 Z"/></g>
<g><path style="opacity:1" fill="#ad7947" d="M 94.5,32.5 C 97.8333,32.5 101.167,32.5 104.5,32.5C 108.179,32.7244 111.846,33.0578 115.5,33.5C 113.631,34.1646 111.631,34.8313 109.5,35.5C 110.313,36.8139 111.313,37.9805 112.5,39C 109.986,40.2525 107.32,40.7525 104.5,40.5C 102.629,40.1412 101.129,39.1412 100,37.5C 99.4867,38.5266 98.9867,39.5266 98.5,40.5C 93.9,40.2796 89.5667,40.9462 85.5,42.5C 80.5705,42.8067 76.2371,44.4733 72.5,47.5C 70.2459,48.4151 68.2459,49.7484 66.5,51.5C 66.5106,49.9826 67.1772,48.8159 68.5,48C 66.8034,47.6155 65.1368,47.7822 63.5,48.5C 66.5992,44.4657 70.2659,41.1324 74.5,38.5C 77.9889,37.342 81.3223,36.0086 84.5,34.5C 88.0109,34.1006 91.3443,33.4339 94.5,32.5 Z"/></g>
<g><path style="opacity:1" fill="#f2e8e1" d="M 129.5,27.5 C 140.294,32.9695 149.128,40.6362 156,50.5C 156.689,53.5786 157.189,56.4119 157.5,59C 155.219,62.088 153.219,65.2547 151.5,68.5C 151.323,53.1622 143.989,42.8289 129.5,37.5C 129.141,35.2341 129.808,33.4007 131.5,32C 125.772,30.1521 120.106,28.1521 114.5,26C 119.603,25.4294 124.603,25.9294 129.5,27.5 Z"/></g>
<g><path style="opacity:1" fill="#000000" d="M 50.5,37.5 C 49.8333,37.5 49.5,37.8333 49.5,38.5C 48.8333,38.5 48.5,38.8333 48.5,39.5C 47.8333,39.5 47.5,39.8333 47.5,40.5C 46.8333,40.5 46.5,40.8333 46.5,41.5C 45.8817,39.3364 46.8817,37.6697 49.5,36.5C 50.1067,36.6236 50.44,36.9569 50.5,37.5 Z"/></g>
<g><path style="opacity:1" fill="#ceb9b2" d="M 127.5,37.5 C 128.965,38.7368 130.632,39.7368 132.5,40.5C 132.53,41.4972 132.03,42.1639 131,42.5C 127.817,41.3015 124.65,40.1348 121.5,39C 120.833,38.3333 120.167,37.6667 119.5,37C 122.192,36.5702 124.859,36.7369 127.5,37.5 Z"/></g>
<g><path style="opacity:1" fill="#000000" d="M 157.5,41.5 C 157.5,40.8333 157.167,40.5 156.5,40.5C 156.747,38.0248 157.413,38.0248 158.5,40.5C 158.376,41.1067 158.043,41.44 157.5,41.5 Z"/></g>
<g><path style="opacity:1" fill="#baa7a4" d="M 155.5,39.5 C 155.5,40.1667 155.833,40.5 156.5,40.5C 157.167,40.5 157.5,40.8333 157.5,41.5C 157.833,42.5 158.5,43.1667 159.5,43.5C 159.328,44.4916 159.662,45.1583 160.5,45.5C 160.328,46.4916 160.662,47.1583 161.5,47.5C 161.328,48.4916 161.662,49.1583 162.5,49.5C 162.5,50.5 162.5,51.5 162.5,52.5C 161.833,52.5 161.5,52.8333 161.5,53.5C 159.993,48.8248 157.659,44.4915 154.5,40.5C 154.624,39.8933 154.957,39.56 155.5,39.5 Z"/></g>
<g><path style="opacity:1" fill="#c69e7d" d="M 98.5,40.5 C 98.0113,41.9952 97.3446,43.3285 96.5,44.5C 95.4865,45.6591 95.1532,47.6591 95.5,50.5C 93.2729,49.5994 92.2729,47.9328 92.5,45.5C 92.5,44.8333 92.1667,44.5 91.5,44.5C 91.1583,43.6618 90.4916,43.3284 89.5,43.5C 88.4324,42.5655 87.099,42.2322 85.5,42.5C 89.5667,40.9462 93.9,40.2796 98.5,40.5 Z"/></g>
<g><path style="opacity:1" fill="#000000" d="M 159.5,42.5 C 160.833,43.1667 160.833,43.1667 159.5,42.5 Z"/></g>
<g><path style="opacity:1" fill="#8d7268" d="M 84.5,34.5 C 81.3223,36.0086 77.9889,37.342 74.5,38.5C 59.99,43.3337 52.3234,53.3337 51.5,68.5C 50.7321,67.7375 50.2321,66.7375 50,65.5C 48.5096,58.5577 49.6763,52.2244 53.5,46.5C 56.9121,44.5962 59.9121,42.0962 62.5,39C 65.0318,38.3811 67.3651,37.3811 69.5,36C 74.3385,33.5694 79.3385,33.0694 84.5,34.5 Z"/></g>
<g><path style="opacity:1" fill="#000000" d="M 160.5,44.5 C 161.833,45.1667 161.833,45.1667 160.5,44.5 Z"/></g>
<g><path style="opacity:1" fill="#b8a198" d="M 107.5,43.5 C 107.198,46.0593 107.532,48.3926 108.5,50.5C 106.833,51.5 105.5,52.8333 104.5,54.5C 103.159,54.6453 101.826,53.9786 100.5,52.5C 101.5,52.5 102.5,52.5 103.5,52.5C 103.5,49.1667 103.5,45.8333 103.5,42.5C 105.099,42.2322 106.432,42.5655 107.5,43.5 Z"/></g>
<g><path style="opacity:1" fill="#000000" d="M 161.5,46.5 C 162.833,47.1667 162.833,47.1667 161.5,46.5 Z"/></g>
<g><path style="opacity:1" fill="#000000" d="M 41.5,48.5 C 40.8333,47.1667 40.8333,47.1667 41.5,48.5 Z"/></g>
<g><path style="opacity:1" fill="#c28f5e" d="M 85.5,42.5 C 87.099,42.2322 88.4324,42.5655 89.5,43.5C 80.5133,44.0683 73.68,48.0683 69,55.5C 67.6116,65.8893 71.7783,73.0559 81.5,77C 84.6179,78.7275 87.9513,79.5608 91.5,79.5C 94.8333,80.1667 98.1667,80.8333 101.5,81.5C 85.1154,84.059 73.282,78.059 66,63.5C 65.3333,60.8333 65.3333,58.1667 66,55.5C 68.0007,52.6693 70.1673,50.0026 72.5,47.5C 76.2371,44.4733 80.5705,42.8067 85.5,42.5 Z"/></g>
<g><path style="opacity:1" fill="#000000" d="M 162.5,48.5 C 163.833,49.1667 163.833,49.1667 162.5,48.5 Z"/></g>
<g><path style="opacity:1" fill="#000000" d="M 40.5,50.5 C 39.8333,49.1667 39.8333,49.1667 40.5,50.5 Z"/></g>
<g><path style="opacity:1" fill="#ae8b80" d="M 124.5,44.5 C 129.302,46.1274 133.468,48.7941 137,52.5C 137.483,53.448 137.649,54.448 137.5,55.5C 136.833,55.1667 136.167,54.8333 135.5,54.5C 132.457,50.4564 128.791,47.1231 124.5,44.5 Z"/></g>
<g><path style="opacity:1" fill="#835336" d="M 96.5,44.5 C 95.7736,48.2604 97.1069,50.927 100.5,52.5C 101.826,53.9786 103.159,54.6453 104.5,54.5C 103.928,55.9733 103.095,57.3066 102,58.5C 101.392,56.9336 100.558,55.6002 99.5,54.5C 98.5,52.8333 97.1667,51.5 95.5,50.5C 95.1532,47.6591 95.4865,45.6591 96.5,44.5 Z"/></g>
<g><path style="opacity:1" fill="#dcccbf" d="M 104.5,40.5 C 110.274,41.9457 116.274,42.6123 122.5,42.5C 123.167,43.1667 123.833,43.8333 124.5,44.5C 128.791,47.1231 132.457,50.4564 135.5,54.5C 135.5,55.1667 135.5,55.8333 135.5,56.5C 133.776,65.7778 128.443,71.9444 119.5,75C 117.613,75.7796 115.946,75.6129 114.5,74.5C 117.48,73.6766 120.147,72.3433 122.5,70.5C 126.226,69.0473 128.559,66.3806 129.5,62.5C 132.23,58.8136 132.063,55.1469 129,51.5C 123.738,47.4466 117.904,44.9466 111.5,44C 112.373,45.045 113.373,45.8783 114.5,46.5C 115.441,48.0495 116.107,49.7162 116.5,51.5C 116.649,52.552 116.483,53.552 116,54.5C 113.441,51.8765 111.108,52.2098 109,55.5C 105.839,58.4893 104.339,62.1559 104.5,66.5C 104.5,67.1667 104.5,67.8333 104.5,68.5C 103.833,68.8333 103.167,69.1667 102.5,69.5C 102.167,68.1667 101.833,66.8333 101.5,65.5C 101.628,63.3453 101.128,61.3453 100,59.5C 99.6667,59.8333 99.3333,60.1667 99,60.5C 98.2109,58.2884 98.3775,56.2884 99.5,54.5C 100.558,55.6002 101.392,56.9336 102,58.5C 103.095,57.3066 103.928,55.9733 104.5,54.5C 105.5,52.8333 106.833,51.5 108.5,50.5C 112.639,47.5744 112.306,45.2411 107.5,43.5C 106.432,42.5655 105.099,42.2322 103.5,42.5C 103.5,45.8333 103.5,49.1667 103.5,52.5C 102.5,52.5 101.5,52.5 100.5,52.5C 97.1069,50.927 95.7736,48.2604 96.5,44.5C 97.3446,43.3285 98.0113,41.9952 98.5,40.5C 98.9867,39.5266 99.4867,38.5266 100,37.5C 101.129,39.1412 102.629,40.1412 104.5,40.5 Z"/></g>
<g><path style="opacity:1" fill="#af855e" d="M 129.5,62.5 C 129.5,60.5 129.5,58.5 129.5,56.5C 127.761,53.59 125.428,51.09 122.5,49C 120.091,47.2932 117.425,46.4598 114.5,46.5C 113.373,45.8783 112.373,45.045 111.5,44C 117.904,44.9466 123.738,47.4466 129,51.5C 132.063,55.1469 132.23,58.8136 129.5,62.5 Z"/></g>
<g><path style="opacity:1" fill="#937465" d="M 114.5,46.5 C 117.425,46.4598 120.091,47.2932 122.5,49C 125.428,51.09 127.761,53.59 129.5,56.5C 128.686,58.631 128.186,60.9644 128,63.5C 127.809,61.2922 127.309,59.2922 126.5,57.5C 125.356,55.8998 124.189,54.2331 123,52.5C 122.544,56.121 120.711,58.7877 117.5,60.5C 118.551,57.3442 118.551,54.3442 117.5,51.5C 117.167,51.5 116.833,51.5 116.5,51.5C 116.107,49.7162 115.441,48.0495 114.5,46.5 Z"/></g>
<g><path style="opacity:1" fill="#6f534b" d="M 107.5,43.5 C 112.306,45.2411 112.639,47.5744 108.5,50.5C 107.532,48.3926 107.198,46.0593 107.5,43.5 Z"/></g>
<g><path style="opacity:1" fill="#af8469" d="M 115.5,33.5 C 119.886,33.9658 123.886,35.2991 127.5,37.5C 124.859,36.7369 122.192,36.5702 119.5,37C 120.167,37.6667 120.833,38.3333 121.5,39C 124.65,40.1348 127.817,41.3015 131,42.5C 132.03,42.1639 132.53,41.4972 132.5,40.5C 136.282,41.7883 138.449,44.4549 139,48.5C 147.874,54.9469 148.041,61.2803 139.5,67.5C 142.182,62.3176 142.016,57.3176 139,52.5C 134.647,47.2418 129.147,43.9084 122.5,42.5C 116.274,42.6123 110.274,41.9457 104.5,40.5C 107.32,40.7525 109.986,40.2525 112.5,39C 111.313,37.9805 110.313,36.8139 109.5,35.5C 111.631,34.8313 113.631,34.1646 115.5,33.5 Z"/></g>
<g><path style="opacity:1" fill="#c99c71" d="M 87.5,50.5 C 87.2978,52.9892 87.7978,55.3225 89,57.5C 92.9406,60.5516 97.1072,63.2183 101.5,65.5C 101.833,66.8333 102.167,68.1667 102.5,69.5C 100.895,67.8847 98.5619,66.3847 95.5,65C 93.8659,64.5065 92.1992,64.3398 90.5,64.5C 84.8982,62.9034 81.8982,59.2367 81.5,53.5C 82.976,51.5 84.8094,49.8334 87,48.5C 87.4643,49.0944 87.631,49.7611 87.5,50.5 Z"/></g>
<g><path style="opacity:1" fill="#7b5f4b" d="M 62.5,49.5 C 60.5757,57.0423 60.0757,64.709 61,72.5C 62.0608,75.5616 63.8941,78.0616 66.5,80C 70.6017,83.0461 74.935,85.5461 79.5,87.5C 71.0385,85.936 63.7051,82.2693 57.5,76.5C 57.9382,76.5654 58.2716,76.3988 58.5,76C 52.1809,66.0319 53.5142,57.1985 62.5,49.5 Z"/></g>
<g><path style="opacity:1" fill="#b1998d" d="M 116.5,51.5 C 116.833,51.5 117.167,51.5 117.5,51.5C 117.625,58.2156 114.291,62.0489 107.5,63C 106.364,64.1451 105.364,65.3117 104.5,66.5C 104.339,62.1559 105.839,58.4893 109,55.5C 111.108,52.2098 113.441,51.8765 116,54.5C 116.483,53.552 116.649,52.552 116.5,51.5 Z"/></g>
<g><path style="opacity:1" fill="#b7b5c1" d="M 63.5,34.5 C 64.2389,34.369 64.9056,34.5357 65.5,35C 62.6667,37.1667 59.8333,39.3333 57,41.5C 56.6667,41.1667 56.3333,40.8333 56,40.5C 54.5,42 53,43.5 51.5,45C 52.4158,45.2784 53.0825,45.7784 53.5,46.5C 49.6763,52.2244 48.5096,58.5577 50,65.5C 50.2321,66.7375 50.7321,67.7375 51.5,68.5C 52.4706,70.4832 53.4706,72.4832 54.5,74.5C 52.1296,74.264 50.1296,73.264 48.5,71.5C 47.7771,68.9302 46.6104,66.5968 45,64.5C 44.232,58.0501 44.732,51.7168 46.5,45.5C 46.5106,43.9826 47.1772,42.8159 48.5,42C 51.209,41.4592 53.209,39.9592 54.5,37.5C 57.6876,36.8702 60.6876,35.8702 63.5,34.5 Z"/></g>
<g><path style="opacity:1" fill="#f3e5d9" d="M 92.5,45.5 C 92.2729,47.9328 93.2729,49.5994 95.5,50.5C 97.1667,51.5 98.5,52.8333 99.5,54.5C 98.3775,56.2884 98.2109,58.2884 99,60.5C 99.3333,60.1667 99.6667,59.8333 100,59.5C 101.128,61.3453 101.628,63.3453 101.5,65.5C 97.1072,63.2183 92.9406,60.5516 89,57.5C 87.7978,55.3225 87.2978,52.9892 87.5,50.5C 88.806,48.5273 90.4727,46.8606 92.5,45.5 Z"/></g>
<g><path style="opacity:1" fill="#b58866" d="M 91.5,44.5 C 92.1667,44.5 92.5,44.8333 92.5,45.5C 90.4727,46.8606 88.806,48.5273 87.5,50.5C 87.631,49.7611 87.4643,49.0944 87,48.5C 84.8094,49.8334 82.976,51.5 81.5,53.5C 80.7281,54.6935 79.7281,55.6935 78.5,56.5C 76.5589,58.0106 76.0589,60.0106 77,62.5C 78.3277,65.3118 79.8277,67.9784 81.5,70.5C 74.7365,67.3084 71.9031,61.9751 73,54.5C 77.8219,48.6725 83.9886,45.3391 91.5,44.5 Z"/></g>
<g><path style="opacity:1" fill="#623a1b" d="M 74.5,38.5 C 70.2659,41.1324 66.5992,44.4657 63.5,48.5C 63.5,49.1667 63.1667,49.5 62.5,49.5C 53.5142,57.1985 52.1809,66.0319 58.5,76C 58.2716,76.3988 57.9382,76.5654 57.5,76.5C 56.5,75.8333 55.5,75.1667 54.5,74.5C 53.4706,72.4832 52.4706,70.4832 51.5,68.5C 52.3234,53.3337 59.99,43.3337 74.5,38.5 Z"/></g>
<g><path style="opacity:1" fill="#7b4c2e" d="M 117.5,51.5 C 118.551,54.3442 118.551,57.3442 117.5,60.5C 115.075,63.0458 112.075,64.5458 108.5,65C 106.959,66.5793 105.792,68.4127 105,70.5C 104.536,69.9056 104.369,69.2389 104.5,68.5C 104.5,67.8333 104.5,67.1667 104.5,66.5C 105.364,65.3117 106.364,64.1451 107.5,63C 114.291,62.0489 117.625,58.2156 117.5,51.5 Z"/></g>
<g><path style="opacity:1" fill="#806862" d="M 182.5,63.5 C 180.259,64.2998 179.259,65.9664 179.5,68.5C 176.545,69.1587 173.545,69.4921 170.5,69.5C 168.674,67.8525 167.34,65.8525 166.5,63.5C 167.167,63.5 167.5,63.1667 167.5,62.5C 171.646,61.353 175.98,61.1864 180.5,62C 181.416,62.2784 182.082,62.7784 182.5,63.5 Z"/></g>
<g><path style="opacity:1" fill="#efdece" d="M 81.5,53.5 C 81.8982,59.2367 84.8982,62.9034 90.5,64.5C 96.0992,67.098 100.433,71.098 103.5,76.5C 103.376,77.1067 103.043,77.44 102.5,77.5C 101.942,76.2101 100.942,75.3768 99.5,75C 90.465,74.9035 83.6317,71.0702 79,63.5C 78.5034,61.1902 78.3367,58.8568 78.5,56.5C 79.7281,55.6935 80.7281,54.6935 81.5,53.5 Z"/></g>
<g><path style="opacity:1" fill="#e6ceb4" d="M 72.5,47.5 C 70.1673,50.0026 68.0007,52.6693 66,55.5C 65.3333,58.1667 65.3333,60.8333 66,63.5C 73.282,78.059 85.1154,84.059 101.5,81.5C 94.6493,82.694 87.6493,82.694 80.5,81.5C 74.0144,78.333 68.8477,73.6663 65,67.5C 62.7051,61.8674 63.2051,56.5341 66.5,51.5C 68.2459,49.7484 70.2459,48.4151 72.5,47.5 Z"/></g>
<g><path style="opacity:1" fill="#ad7b4b" d="M 127.5,37.5 C 128.167,37.5 128.833,37.5 129.5,37.5C 143.989,42.8289 151.323,53.1622 151.5,68.5C 148.543,72.7921 145.21,76.7921 141.5,80.5C 139.326,80.7497 137.659,81.7497 136.5,83.5C 133.156,84.5075 129.823,85.5075 126.5,86.5C 124.578,85.1128 124.578,83.2794 126.5,81C 124.045,81.2508 121.545,81.7508 119,82.5C 117.93,82.472 117.097,82.1386 116.5,81.5C 126.236,80.0716 133.903,75.4049 139.5,67.5C 148.041,61.2803 147.874,54.9469 139,48.5C 138.449,44.4549 136.282,41.7883 132.5,40.5C 130.632,39.7368 128.965,38.7368 127.5,37.5 Z"/></g>
<g><path style="opacity:1" fill="#000000" d="M 188.5,67.5 C 189.833,68.1667 189.833,68.1667 188.5,67.5 Z"/></g>
<g><path style="opacity:1" fill="#413d46" d="M 166.5,63.5 C 167.34,65.8525 168.674,67.8525 170.5,69.5C 170.5,69.8333 170.5,70.1667 170.5,70.5C 168.236,71.2186 165.903,71.552 163.5,71.5C 163.5,68.8333 163.5,66.1667 163.5,63.5C 164.5,63.5 165.5,63.5 166.5,63.5 Z"/></g>
<g><path style="opacity:1" fill="#000000" d="M 189.5,69.5 C 190.833,70.1667 190.833,70.1667 189.5,69.5 Z"/></g>
<g><path style="opacity:1" fill="#ceac89" d="M 122.5,42.5 C 129.147,43.9084 134.647,47.2418 139,52.5C 142.016,57.3176 142.182,62.3176 139.5,67.5C 133.903,75.4049 126.236,80.0716 116.5,81.5C 113.287,81.81 110.287,81.4767 107.5,80.5C 107.833,80.5 108.167,80.5 108.5,80.5C 120.88,80.3937 130.713,75.3937 138,65.5C 138.808,61.9733 138.641,58.6399 137.5,55.5C 137.649,54.448 137.483,53.448 137,52.5C 133.468,48.7941 129.302,46.1274 124.5,44.5C 123.833,43.8333 123.167,43.1667 122.5,42.5 Z"/></g>
<g><path style="opacity:1" fill="#000000" d="M 190.5,71.5 C 191.833,72.1667 191.833,72.1667 190.5,71.5 Z"/></g>
<g><path style="opacity:1" fill="#623e28" d="M 182.5,63.5 C 184.833,63.8333 186.167,65.1667 186.5,67.5C 187.35,69.4944 187.85,71.4944 188,73.5C 186.534,71.6751 184.701,71.1751 182.5,72C 188.965,75.0936 191.631,80.2602 190.5,87.5C 189.719,89.6522 189.386,91.6522 189.5,93.5C 189.167,92.1667 188.833,92.1667 188.5,93.5C 187.662,93.8417 187.328,94.5084 187.5,95.5C 187.167,95.5 186.833,95.5 186.5,95.5C 186.468,91.5275 187.134,87.6942 188.5,84C 188.769,80.682 187.436,78.5153 184.5,77.5C 183.942,76.2101 182.942,75.3768 181.5,75C 177.814,74.4412 174.147,73.7745 170.5,73C 174.333,72.3965 174.333,71.5632 170.5,70.5C 170.5,70.1667 170.5,69.8333 170.5,69.5C 173.545,69.4921 176.545,69.1587 179.5,68.5C 179.259,65.9664 180.259,64.2998 182.5,63.5 Z"/></g>
<g><path style="opacity:1" fill="#c69865" d="M 66.5,51.5 C 63.2051,56.5341 62.7051,61.8674 65,67.5C 68.8477,73.6663 74.0144,78.333 80.5,81.5C 82.8281,82.718 85.3281,83.718 88,84.5C 88.6667,85.1667 88.6667,85.8333 88,86.5C 79.6153,84.8053 79.4486,85.8053 87.5,89.5C 84.5049,89.7062 81.8383,89.0395 79.5,87.5C 74.935,85.5461 70.6017,83.0461 66.5,80C 63.8941,78.0616 62.0608,75.5616 61,72.5C 60.0757,64.709 60.5757,57.0423 62.5,49.5C 63.1667,49.5 63.5,49.1667 63.5,48.5C 65.1368,47.7822 66.8034,47.6155 68.5,48C 67.1772,48.8159 66.5106,49.9826 66.5,51.5 Z"/></g>
<g><path style="opacity:1" fill="#cfbeb3" d="M 126.5,57.5 C 126.793,60.7543 126.126,63.7543 124.5,66.5C 122.598,65.4891 120.598,65.3224 118.5,66C 115.912,68.4162 113.578,70.9162 111.5,73.5C 109.063,73.886 107.063,75.0527 105.5,77C 105.833,77.1667 106.167,77.3333 106.5,77.5C 108.858,75.7134 111.525,74.7134 114.5,74.5C 115.946,75.6129 117.613,75.7796 119.5,75C 128.443,71.9444 133.776,65.7778 135.5,56.5C 136.701,59.4052 136.534,62.4052 135,65.5C 128.41,74.5431 119.576,79.5431 108.5,80.5C 108.167,80.5 107.833,80.5 107.5,80.5C 105.435,80.5172 103.435,80.8505 101.5,81.5C 98.1667,80.8333 94.8333,80.1667 91.5,79.5C 94.3198,79.7525 96.9865,79.2525 99.5,78C 98.5842,77.7216 97.9175,77.2216 97.5,76.5C 99.2161,76.6287 100.883,76.962 102.5,77.5C 103.043,77.44 103.376,77.1067 103.5,76.5C 100.433,71.098 96.0992,67.098 90.5,64.5C 92.1992,64.3398 93.8659,64.5065 95.5,65C 98.5619,66.3847 100.895,67.8847 102.5,69.5C 103.167,69.1667 103.833,68.8333 104.5,68.5C 104.369,69.2389 104.536,69.9056 105,70.5C 105.792,68.4127 106.959,66.5793 108.5,65C 112.075,64.5458 115.075,63.0458 117.5,60.5C 120.711,58.7877 122.544,56.121 123,52.5C 124.189,54.2331 125.356,55.8998 126.5,57.5 Z"/></g>
<g><path style="opacity:1" fill="#773a19" d="M 122.5,69.5 C 122.5,69.8333 122.5,70.1667 122.5,70.5C 120.147,72.3433 117.48,73.6766 114.5,74.5C 111.525,74.7134 108.858,75.7134 106.5,77.5C 106.167,77.3333 105.833,77.1667 105.5,77C 107.063,75.0527 109.063,73.886 111.5,73.5C 115.488,72.9242 119.155,71.5909 122.5,69.5 Z"/></g>
<g><path style="opacity:1" fill="#af9584" d="M 124.5,66.5 C 123.833,67.5 123.167,68.5 122.5,69.5C 119.155,71.5909 115.488,72.9242 111.5,73.5C 113.578,70.9162 115.912,68.4162 118.5,66C 120.598,65.3224 122.598,65.4891 124.5,66.5 Z"/></g>
<g><path style="opacity:1" fill="#694537" d="M 129.5,56.5 C 129.5,58.5 129.5,60.5 129.5,62.5C 128.559,66.3806 126.226,69.0473 122.5,70.5C 122.5,70.1667 122.5,69.8333 122.5,69.5C 123.167,68.5 123.833,67.5 124.5,66.5C 126.126,63.7543 126.793,60.7543 126.5,57.5C 127.309,59.2922 127.809,61.2922 128,63.5C 128.186,60.9644 128.686,58.631 129.5,56.5 Z"/></g>
<g><path style="opacity:1" fill="#331b0e" d="M 170.5,70.5 C 174.333,71.5632 174.333,72.3965 170.5,73C 174.147,73.7745 177.814,74.4412 181.5,75C 182.942,75.3768 183.942,76.2101 184.5,77.5C 180.035,76.2641 175.701,76.2641 171.5,77.5C 171.5,77.8333 171.5,78.1667 171.5,78.5C 168.807,77.4485 166.14,76.4485 163.5,75.5C 163.5,74.5 163.5,73.5 163.5,72.5C 163.5,72.1667 163.5,71.8333 163.5,71.5C 165.903,71.552 168.236,71.2186 170.5,70.5 Z"/></g>
<g><path style="opacity:1" fill="#000000" d="M 191.5,74.5 C 192.833,75.1667 192.833,75.1667 191.5,74.5 Z"/></g>
<g><path style="opacity:1" fill="#ead6c4" d="M 89.5,43.5 C 90.4916,43.3284 91.1583,43.6618 91.5,44.5C 83.9886,45.3391 77.8219,48.6725 73,54.5C 71.9031,61.9751 74.7365,67.3084 81.5,70.5C 86.1509,74.1523 91.4842,76.1523 97.5,76.5C 97.9175,77.2216 98.5842,77.7216 99.5,78C 96.9865,79.2525 94.3198,79.7525 91.5,79.5C 87.9513,79.5608 84.6179,78.7275 81.5,77C 71.7783,73.0559 67.6116,65.8893 69,55.5C 73.68,48.0683 80.5133,44.0683 89.5,43.5 Z"/></g>
<g><path style="opacity:1" fill="#a3602d" d="M 78.5,56.5 C 78.3367,58.8568 78.5034,61.1902 79,63.5C 83.6317,71.0702 90.465,74.9035 99.5,75C 100.942,75.3768 101.942,76.2101 102.5,77.5C 100.883,76.962 99.2161,76.6287 97.5,76.5C 91.4842,76.1523 86.1509,74.1523 81.5,70.5C 79.8277,67.9784 78.3277,65.3118 77,62.5C 76.0589,60.0106 76.5589,58.0106 78.5,56.5 Z"/></g>
<g><path style="opacity:1" fill="#533528" d="M 163.5,72.5 C 163.5,73.5 163.5,74.5 163.5,75.5C 166.14,76.4485 168.807,77.4485 171.5,78.5C 168.596,80.0551 165.93,82.0551 163.5,84.5C 162.566,83.4324 162.232,82.099 162.5,80.5C 162.194,77.6146 162.527,74.9479 163.5,72.5 Z"/></g>
<g><path style="opacity:1" fill="#bb845a" d="M 42.5,61.5 C 42.9652,65.0615 44.1319,68.3949 46,71.5C 50.4062,76.4114 55.2395,80.7448 60.5,84.5C 59.1526,83.9717 57.8193,83.805 56.5,84C 58.0931,84.9487 59.4264,86.1154 60.5,87.5C 54.5264,85.0277 49.5264,81.361 45.5,76.5C 44.4043,73.9684 43.0709,71.6351 41.5,69.5C 40.8401,67.1843 40.1734,64.851 39.5,62.5C 40.1076,59.8546 40.6076,57.1879 41,54.5C 41.1862,57.0356 41.6862,59.369 42.5,61.5 Z"/></g>
<g><path style="opacity:1" fill="#966747" d="M 135.5,54.5 C 136.167,54.8333 136.833,55.1667 137.5,55.5C 138.641,58.6399 138.808,61.9733 138,65.5C 130.713,75.3937 120.88,80.3937 108.5,80.5C 119.576,79.5431 128.41,74.5431 135,65.5C 136.534,62.4052 136.701,59.4052 135.5,56.5C 135.5,55.8333 135.5,55.1667 135.5,54.5 Z"/></g>
<g><path style="opacity:1" fill="#876b5d" d="M 162.5,52.5 C 164.175,55.5072 164.841,58.8405 164.5,62.5C 165.5,62.5 166.5,62.5 167.5,62.5C 167.5,63.1667 167.167,63.5 166.5,63.5C 165.5,63.5 164.5,63.5 163.5,63.5C 163.5,66.1667 163.5,68.8333 163.5,71.5C 163.5,71.8333 163.5,72.1667 163.5,72.5C 162.527,74.9479 162.194,77.6146 162.5,80.5C 160.783,83.8448 160.116,87.5115 160.5,91.5C 160.074,93.1388 160.074,94.4721 160.5,95.5C 160.5,95.8333 160.5,96.1667 160.5,96.5C 158.991,97.8595 158.324,97.3595 158.5,95C 159.641,91.6714 159.641,88.5047 158.5,85.5C 159.412,84.2618 159.579,82.9285 159,81.5C 157.148,84.0603 155.482,86.727 154,89.5C 153.167,87.5 152.333,85.5 151.5,83.5C 149.114,84.9884 148.448,84.6551 149.5,82.5C 152.026,80.5818 154.026,78.2485 155.5,75.5C 158.572,71.3488 160.572,66.6821 161.5,61.5C 161.5,58.8333 161.5,56.1667 161.5,53.5C 161.5,52.8333 161.833,52.5 162.5,52.5 Z"/></g>
<g><path style="opacity:1" fill="#a5a3a2" d="M 171.5,78.5 C 171.5,78.1667 171.5,77.8333 171.5,77.5C 174.167,77.5 176.833,77.5 179.5,77.5C 179.737,78.791 179.404,79.791 178.5,80.5C 178.167,77.8333 177.833,77.8333 177.5,80.5C 175.886,78.9254 173.886,78.2587 171.5,78.5 Z"/></g>
<g><path style="opacity:1" fill="#c6c4ca" d="M 161.5,61.5 C 160.572,66.6821 158.572,71.3488 155.5,75.5C 151.476,78.5314 147.476,81.5314 143.5,84.5C 135.632,88.5996 127.299,91.2663 118.5,92.5C 118.369,91.6236 118.702,90.9569 119.5,90.5C 124.465,88.9008 129.465,87.4008 134.5,86C 135.381,85.2917 136.047,84.4584 136.5,83.5C 137.659,81.7497 139.326,80.7497 141.5,80.5C 143.712,79.3548 146.045,78.3548 148.5,77.5C 150.356,74.8103 152.689,72.6437 155.5,71C 157.181,69.0545 157.848,67.0545 157.5,65C 158.736,63.6125 160.069,62.4458 161.5,61.5 Z"/></g>
<g><path style="opacity:1" fill="#a78c79" d="M 186.5,67.5 C 187.167,67.8333 187.833,68.1667 188.5,68.5C 188.328,69.4916 188.662,70.1583 189.5,70.5C 189.328,71.4916 189.662,72.1583 190.5,72.5C 190.263,73.791 190.596,74.791 191.5,75.5C 193.112,79.7787 192.779,83.7787 190.5,87.5C 191.631,80.2602 188.965,75.0936 182.5,72C 184.701,71.1751 186.534,71.6751 188,73.5C 187.85,71.4944 187.35,69.4944 186.5,67.5 Z"/></g>
<g><path style="opacity:1" fill="#d2cdd3" d="M 46.5,45.5 C 44.732,51.7168 44.232,58.0501 45,64.5C 46.6104,66.5968 47.7771,68.9302 48.5,71.5C 50.1296,73.264 52.1296,74.264 54.5,74.5C 55.5,75.1667 56.5,75.8333 57.5,76.5C 63.7051,82.2693 71.0385,85.936 79.5,87.5C 81.8383,89.0395 84.5049,89.7062 87.5,89.5C 100.867,91.5023 113.867,90.5023 126.5,86.5C 129.823,85.5075 133.156,84.5075 136.5,83.5C 136.047,84.4584 135.381,85.2917 134.5,86C 129.465,87.4008 124.465,88.9008 119.5,90.5C 118.702,90.9569 118.369,91.6236 118.5,92.5C 104.791,95.1234 91.1241,94.7901 77.5,91.5C 74.0853,89.7207 70.4187,88.3873 66.5,87.5C 64.8185,85.9925 62.8185,84.9925 60.5,84.5C 55.2395,80.7448 50.4062,76.4114 46,71.5C 44.1319,68.3949 42.9652,65.0615 42.5,61.5C 42.3347,57.8183 42.5014,54.1516 43,50.5C 43.6972,48.4156 44.8639,46.7489 46.5,45.5 Z"/></g>
<g><path style="opacity:1" fill="#a47659" d="M 45.5,76.5 C 49.5264,81.361 54.5264,85.0277 60.5,87.5C 62.8185,87.9925 64.8185,88.9925 66.5,90.5C 67.7804,91.9313 69.4471,92.5979 71.5,92.5C 73.5281,100.698 74.5281,109.032 74.5,117.5C 71.5,118.833 68.5,118.833 65.5,117.5C 60.9749,114.793 56.6416,111.793 52.5,108.5C 50.4192,106.153 48.4192,103.82 46.5,101.5C 47.7965,100.151 47.6298,98.8179 46,97.5C 44.4178,90.372 44.2512,83.372 45.5,76.5 Z"/></g>
<g><path style="opacity:1" fill="#b4814d" d="M 107.5,80.5 C 110.287,81.4767 113.287,81.81 116.5,81.5C 117.097,82.1386 117.93,82.472 119,82.5C 121.545,81.7508 124.045,81.2508 126.5,81C 124.578,83.2794 124.578,85.1128 126.5,86.5C 113.867,90.5023 100.867,91.5023 87.5,89.5C 79.4486,85.8053 79.6153,84.8053 88,86.5C 88.6667,85.8333 88.6667,85.1667 88,84.5C 85.3281,83.718 82.8281,82.718 80.5,81.5C 87.6493,82.694 94.6493,82.694 101.5,81.5C 103.435,80.8505 105.435,80.5172 107.5,80.5 Z"/></g>
<g><path style="opacity:1" fill="#cbc5c6" d="M 162.5,80.5 C 162.232,82.099 162.566,83.4324 163.5,84.5C 162.341,86.8546 161.341,89.1879 160.5,91.5C 160.116,87.5115 160.783,83.8448 162.5,80.5 Z"/></g>
<g><path style="opacity:1" fill="#a25d28" d="M 60.5,84.5 C 62.8185,84.9925 64.8185,85.9925 66.5,87.5C 63.911,87.539 61.911,86.539 60.5,84.5 Z"/></g>
<g><path style="opacity:1" fill="#ebded3" d="M 60.5,84.5 C 61.911,86.539 63.911,87.539 66.5,87.5C 67.6002,88.5585 68.9336,89.3918 70.5,90C 70.2716,90.3988 69.9382,90.5654 69.5,90.5C 68.5,90.5 67.5,90.5 66.5,90.5C 64.8185,88.9925 62.8185,87.9925 60.5,87.5C 59.4264,86.1154 58.0931,84.9487 56.5,84C 57.8193,83.805 59.1526,83.9717 60.5,84.5 Z"/></g>
<g><path style="opacity:1" fill="#b78a6b" d="M 66.5,87.5 C 70.4187,88.3873 74.0853,89.7207 77.5,91.5C 77.9175,92.2216 78.5842,92.7216 79.5,93C 75.8376,93.2754 72.5043,92.4421 69.5,90.5C 69.9382,90.5654 70.2716,90.3988 70.5,90C 68.9336,89.3918 67.6002,88.5585 66.5,87.5 Z"/></g>
<g><path style="opacity:1" fill="#635957" d="M 177.5,80.5 C 177.833,80.5 178.167,80.5 178.5,80.5C 178.557,81.609 178.89,82.609 179.5,83.5C 175.277,90.3895 169.611,96.0561 162.5,100.5C 161.725,102.396 160.725,104.063 159.5,105.5C 158.292,106.234 156.959,106.567 155.5,106.5C 155.328,105.508 155.662,104.842 156.5,104.5C 156.435,104.938 156.601,105.272 157,105.5C 159.02,101.423 161.854,98.0901 165.5,95.5C 169.137,92.694 172.304,89.3607 175,85.5C 176.094,83.9221 176.928,82.2554 177.5,80.5 Z"/></g>
<g><path style="opacity:1" fill="#000000" d="M 41.5,94.5 C 40.8333,94.5 40.5,94.8333 40.5,95.5C 38.0248,95.2533 38.0248,94.5866 40.5,93.5C 41.1067,93.6236 41.44,93.9569 41.5,94.5 Z"/></g>
<g><path style="opacity:1" fill="#000000" d="M 188.5,93.5 C 188.833,93.5 189.167,93.5 189.5,93.5C 189.315,94.1701 188.981,94.1701 188.5,93.5 Z"/></g>
<g><path style="opacity:1" fill="#503728" d="M 155.5,75.5 C 154.026,78.2485 152.026,80.5818 149.5,82.5C 147.31,83.8022 145.31,85.4689 143.5,87.5C 144.242,88.2868 145.075,88.9535 146,89.5C 145.862,96.0068 146.028,102.34 146.5,108.5C 146.703,110.39 146.037,111.89 144.5,113C 142.026,113.037 140.026,113.87 138.5,115.5C 137.209,115.737 136.209,115.404 135.5,114.5C 137.142,106.203 138.142,98.0364 138.5,90C 137.906,89.5357 137.239,89.369 136.5,89.5C 139.009,88.0787 141.343,86.4121 143.5,84.5C 147.476,81.5314 151.476,78.5314 155.5,75.5 Z"/></g>
<g><path style="opacity:1" fill="#463029" d="M 179.5,83.5 C 179.657,84.8734 179.49,86.2068 179,87.5C 174.644,93.0025 170.144,98.5025 165.5,104C 163.655,105.128 161.655,105.628 159.5,105.5C 160.725,104.063 161.725,102.396 162.5,100.5C 169.611,96.0561 175.277,90.3895 179.5,83.5 Z"/></g>
<g><path style="opacity:1" fill="#000000" d="M 187.5,95.5 C 188.833,96.1667 188.833,96.1667 187.5,95.5 Z"/></g>
<g><path style="opacity:1" fill="#ae856c" d="M 57.5,90.5 C 60.0115,90.838 62.3448,90.838 64.5,90.5C 67.889,98.4311 68.5557,106.431 66.5,114.5C 60.5509,113.371 57.7176,109.704 58,103.5C 57.6667,104.167 57.3333,104.833 57,105.5C 56.2223,100.416 56.3889,95.4158 57.5,90.5 Z"/></g>
<g><path style="opacity:1" fill="#734221" d="M 102.5,96.5 C 102.607,98.3786 102.107,98.7119 101,97.5C 100.73,100.224 100.23,102.891 99.5,105.5C 100.409,108.985 100.742,112.652 100.5,116.5C 98.8742,118.779 98.0408,121.112 98,123.5C 93.473,128.027 88.973,132.527 84.5,137C 81.953,137.067 79.7863,137.901 78,139.5C 77.3333,138.833 76.6667,138.167 76,137.5C 74.2134,138.343 72.3801,138.51 70.5,138C 74.7231,141.609 79.3898,144.443 84.5,146.5C 84.5,147.167 84.8333,147.5 85.5,147.5C 85.7329,149.062 86.3995,150.395 87.5,151.5C 88.6002,152.558 89.9336,153.392 91.5,154C 90.944,154.383 90.6107,154.883 90.5,155.5C 87.6211,154.008 84.9544,154.341 82.5,156.5C 77.3525,154.928 72.3525,153.761 67.5,153C 68.1667,152.333 68.8333,151.667 69.5,151C 65.1801,146.764 64.8467,142.098 68.5,137C 67.6266,135.955 66.6266,135.122 65.5,134.5C 64.8333,133.167 63.8333,132.167 62.5,131.5C 62.1667,130.833 61.8333,130.167 61.5,129.5C 64.5494,131.758 68.0494,133.092 72,133.5C 74.7741,132.464 77.6074,131.631 80.5,131C 80.1667,130.667 79.8333,130.333 79.5,130C 84.0229,126.977 87.6896,123.144 90.5,118.5C 88.4132,111.455 86.7465,104.622 85.5,98C 90.9813,96.5506 96.648,96.0506 102.5,96.5 Z"/></g>
<g><path style="opacity:1" fill="#93949b" d="M 160.5,96.5 C 160.5,96.1667 160.5,95.8333 160.5,95.5C 162.167,95.5 163.833,95.5 165.5,95.5C 161.854,98.0901 159.02,101.423 157,105.5C 156.601,105.272 156.435,104.938 156.5,104.5C 156.421,103.07 156.754,101.736 157.5,100.5C 159.167,99.3333 160.833,98.1667 162.5,97C 161.906,96.5357 161.239,96.369 160.5,96.5 Z"/></g>
<g><path style="opacity:1" fill="#000000" d="M 185.5,98.5 C 185.833,98.5 186.167,98.5 186.5,98.5C 186.315,99.1701 185.981,99.1701 185.5,98.5 Z"/></g>
<g><path style="opacity:1" fill="#000000" d="M 184.5,99.5 C 184.833,99.5 185.167,99.5 185.5,99.5C 185.315,100.17 184.981,100.17 184.5,99.5 Z"/></g>
<g><path style="opacity:1" fill="#000000" d="M 183.5,100.5 C 183.833,100.5 184.167,100.5 184.5,100.5C 183.167,103.833 180.833,106.167 177.5,107.5C 177.5,107.167 177.5,106.833 177.5,106.5C 178.167,106.5 178.5,106.167 178.5,105.5C 179.167,105.5 179.5,105.167 179.5,104.5C 180.167,104.5 180.5,104.167 180.5,103.5C 181.167,103.5 181.5,103.167 181.5,102.5C 182.167,102.5 182.5,102.167 182.5,101.5C 183.167,101.5 183.5,101.167 183.5,100.5 Z"/></g>
<g><path style="opacity:1" fill="#6a4e3d" d="M 158.5,85.5 C 156.763,89.5909 155.096,93.7576 153.5,98C 154.573,99.2504 154.573,100.584 153.5,102C 151.924,105.079 149.591,107.246 146.5,108.5C 146.028,102.34 145.862,96.0068 146,89.5C 145.075,88.9535 144.242,88.2868 143.5,87.5C 145.31,85.4689 147.31,83.8022 149.5,82.5C 148.448,84.6551 149.114,84.9884 151.5,83.5C 152.333,85.5 153.167,87.5 154,89.5C 155.482,86.727 157.148,84.0603 159,81.5C 159.579,82.9285 159.412,84.2618 158.5,85.5 Z"/></g>
<g><path style="opacity:1" fill="#261510" d="M 171.5,77.5 C 175.701,76.2641 180.035,76.2641 184.5,77.5C 187.436,78.5153 188.769,80.682 188.5,84C 187.134,87.6942 186.468,91.5275 186.5,95.5C 178.205,101.32 169.872,107.154 161.5,113C 162.737,113.232 163.737,113.732 164.5,114.5C 158.689,116.575 153.022,118.908 147.5,121.5C 148.11,120.609 148.443,119.609 148.5,118.5C 151.323,114.864 153.656,110.864 155.5,106.5C 156.959,106.567 158.292,106.234 159.5,105.5C 161.655,105.628 163.655,105.128 165.5,104C 170.144,98.5025 174.644,93.0025 179,87.5C 179.49,86.2068 179.657,84.8734 179.5,83.5C 178.89,82.609 178.557,81.609 178.5,80.5C 179.404,79.791 179.737,78.791 179.5,77.5C 176.833,77.5 174.167,77.5 171.5,77.5 Z"/></g>
<g><path style="opacity:1" fill="#b39084" d="M 41.5,69.5 C 43.0709,71.6351 44.4043,73.9684 45.5,76.5C 44.2512,83.372 44.4178,90.372 46,97.5C 47.6298,98.8179 47.7965,100.151 46.5,101.5C 46.5,100.833 46.1667,100.5 45.5,100.5C 45.5,99.8333 45.1667,99.5 44.5,99.5C 44.5386,98.2438 44.0386,97.2438 43,96.5C 41.1398,99.2719 38.8065,101.605 36,103.5C 34.9055,105.078 34.0722,106.745 33.5,108.5C 32.0292,110.216 31.0292,112.216 30.5,114.5C 29.5,114.5 28.5,114.5 27.5,114.5C 27.8333,113.167 28.1667,111.833 28.5,110.5C 31.7705,104.898 35.7705,99.8983 40.5,95.5C 41.1667,95.5 41.5,95.1667 41.5,94.5C 41.9065,91.7188 41.9065,88.7188 41.5,85.5C 40.8799,80.3072 40.8799,74.9738 41.5,69.5 Z"/></g>
<g><path style="opacity:1" fill="#452218" d="M 44.5,99.5 C 45.1667,99.5 45.5,99.8333 45.5,100.5C 45.6287,102.216 45.962,103.883 46.5,105.5C 44.8712,106.625 43.3712,107.959 42,109.5C 38.9981,116.594 36.1648,123.594 33.5,130.5C 31.2832,117.96 34.9499,107.626 44.5,99.5 Z"/></g>
<g><path style="opacity:1" fill="#442615" d="M 124.5,93.5 C 123.737,94.2679 122.737,94.7679 121.5,95C 121.833,95.3333 122.167,95.6667 122.5,96C 117.866,104.08 115.199,112.58 114.5,121.5C 113.579,124.083 112.246,126.416 110.5,128.5C 110.579,127.07 110.246,125.736 109.5,124.5C 110.985,120.572 111.818,116.572 112,112.5C 111.14,115.633 109.64,118.3 107.5,120.5C 107.472,118.418 108.139,116.584 109.5,115C 109.607,112.065 109.607,109.065 109.5,106C 110.78,102.426 112.113,98.9256 113.5,95.5C 117.233,95.13 120.899,94.4633 124.5,93.5 Z"/></g>
<g><path style="opacity:1" fill="#000000" d="M 176.5,107.5 C 176.833,107.5 177.167,107.5 177.5,107.5C 177.315,108.17 176.981,108.17 176.5,107.5 Z"/></g>
<g><path style="opacity:1" fill="#000000" d="M 175.5,108.5 C 175.833,108.5 176.167,108.5 176.5,108.5C 176.315,109.17 175.981,109.17 175.5,108.5 Z"/></g>
<g><path style="opacity:1" fill="#000000" d="M 28.5,110.5 C 27.8333,109.167 27.8333,109.167 28.5,110.5 Z"/></g>
<g><path style="opacity:1" fill="#5c341d" d="M 158.5,85.5 C 159.641,88.5047 159.641,91.6714 158.5,95C 158.324,97.3595 158.991,97.8595 160.5,96.5C 161.239,96.369 161.906,96.5357 162.5,97C 160.833,98.1667 159.167,99.3333 157.5,100.5C 156.754,101.736 156.421,103.07 156.5,104.5C 155.662,104.842 155.328,105.508 155.5,106.5C 153.656,110.864 151.323,114.864 148.5,118.5C 144.908,118.302 141.574,117.302 138.5,115.5C 140.026,113.87 142.026,113.037 144.5,113C 146.037,111.89 146.703,110.39 146.5,108.5C 149.591,107.246 151.924,105.079 153.5,102C 154.573,100.584 154.573,99.2504 153.5,98C 155.096,93.7576 156.763,89.5909 158.5,85.5 Z"/></g>
<g><path style="opacity:1" fill="#925b32" d="M 45.5,100.5 C 46.1667,100.5 46.5,100.833 46.5,101.5C 48.4192,103.82 50.4192,106.153 52.5,108.5C 56.6416,111.793 60.9749,114.793 65.5,117.5C 65.6107,118.117 65.944,118.617 66.5,119C 69.9555,119.18 73.2889,119.847 76.5,121C 66.444,126.982 58.6106,124.816 53,114.5C 52.6174,115.056 52.1174,115.389 51.5,115.5C 50.7368,113.632 49.7368,111.965 48.5,110.5C 48.1075,108.716 47.4408,107.05 46.5,105.5C 45.962,103.883 45.6287,102.216 45.5,100.5 Z"/></g>
<g><path style="opacity:1" fill="#000000" d="M 175.5,110.5 C 176.833,111.167 176.833,111.167 175.5,110.5 Z"/></g>
<g><path style="opacity:1" fill="#814f2c" d="M 143.5,84.5 C 141.343,86.4121 139.009,88.0787 136.5,89.5C 132.558,90.9571 128.558,92.2904 124.5,93.5C 120.899,94.4633 117.233,95.13 113.5,95.5C 109.881,96.2436 106.215,96.577 102.5,96.5C 96.648,96.0506 90.9813,96.5506 85.5,98C 86.7465,104.622 88.4132,111.455 90.5,118.5C 87.6896,123.144 84.0229,126.977 79.5,130C 79.8333,130.333 80.1667,130.667 80.5,131C 77.6074,131.631 74.7741,132.464 72,133.5C 68.0494,133.092 64.5494,131.758 61.5,129.5C 57.6882,125.223 54.3548,120.557 51.5,115.5C 52.1174,115.389 52.6174,115.056 53,114.5C 58.6106,124.816 66.444,126.982 76.5,121C 73.2889,119.847 69.9555,119.18 66.5,119C 65.944,118.617 65.6107,118.117 65.5,117.5C 68.5,118.833 71.5,118.833 74.5,117.5C 74.5281,109.032 73.5281,100.698 71.5,92.5C 69.4471,92.5979 67.7804,91.9313 66.5,90.5C 67.5,90.5 68.5,90.5 69.5,90.5C 72.5043,92.4421 75.8376,93.2754 79.5,93C 78.5842,92.7216 77.9175,92.2216 77.5,91.5C 91.1241,94.7901 104.791,95.1234 118.5,92.5C 127.299,91.2663 135.632,88.5996 143.5,84.5 Z"/></g>
<g><path style="opacity:1" fill="#000000" d="M 176.5,113.5 C 177.833,114.167 177.833,114.167 176.5,113.5 Z"/></g>
<g><path style="opacity:1" fill="#000000" d="M 177.5,115.5 C 178.833,116.167 178.833,116.167 177.5,115.5 Z"/></g>
<g><path style="opacity:1" fill="#534543" d="M 164.5,114.5 C 167.281,120.311 167.947,126.311 166.5,132.5C 166.875,129.603 166.375,126.937 165,124.5C 162.688,130.056 160.521,135.723 158.5,141.5C 157.817,141.863 157.15,142.196 156.5,142.5C 154.604,140.957 152.771,139.291 151,137.5C 149.442,138.345 148.442,137.679 148,135.5C 147.667,135.833 147.333,136.167 147,136.5C 143.794,135.103 141.628,132.769 140.5,129.5C 140.833,128.833 141.167,128.167 141.5,127.5C 143.861,125.806 145.861,123.806 147.5,121.5C 153.022,118.908 158.689,116.575 164.5,114.5 Z"/></g>
<g><path style="opacity:1" fill="#876863" d="M 33.5,108.5 C 28.9615,120.049 29.9615,131.049 36.5,141.5C 34.9256,141.063 33.7589,140.063 33,138.5C 29.2584,131.32 27.4251,123.654 27.5,115.5C 27.5,115.167 27.5,114.833 27.5,114.5C 28.5,114.5 29.5,114.5 30.5,114.5C 31.0292,112.216 32.0292,110.216 33.5,108.5 Z"/></g>
<g><path style="opacity:1" fill="#45220e" d="M 135.5,114.5 C 136.209,115.404 137.209,115.737 138.5,115.5C 141.574,117.302 144.908,118.302 148.5,118.5C 148.443,119.609 148.11,120.609 147.5,121.5C 145.861,123.806 143.861,125.806 141.5,127.5C 137.128,130.775 132.294,133.441 127,135.5C 125.699,134.902 124.865,133.902 124.5,132.5C 125.31,129.074 126.31,125.741 127.5,122.5C 128.228,120.488 129.062,118.488 130,116.5C 132.574,117.92 134.407,117.253 135.5,114.5 Z"/></g>
<g><path style="opacity:1" fill="#432010" d="M 186.5,95.5 C 186.5,96.1667 186.833,96.5 187.5,96.5C 187.672,97.4916 187.338,98.1583 186.5,98.5C 186.167,97.1667 185.833,97.1667 185.5,98.5C 184.833,98.5 184.5,98.8333 184.5,99.5C 183.833,99.5 183.5,99.8333 183.5,100.5C 182.833,100.5 182.5,100.833 182.5,101.5C 181.833,101.5 181.5,101.833 181.5,102.5C 180.833,102.5 180.5,102.833 180.5,103.5C 179.833,103.5 179.5,103.833 179.5,104.5C 178.833,104.5 178.5,104.833 178.5,105.5C 177.833,105.5 177.5,105.833 177.5,106.5C 176.833,106.5 176.5,106.833 176.5,107.5C 175.833,107.5 175.5,107.833 175.5,108.5C 174.833,108.5 174.167,108.5 173.5,108.5C 172.5,109.167 171.5,109.833 170.5,110.5C 169.373,111.122 168.373,111.955 167.5,113C 172.319,124.897 170.485,135.73 162,145.5C 163.986,141.486 165.486,137.153 166.5,132.5C 167.947,126.311 167.281,120.311 164.5,114.5C 163.737,113.732 162.737,113.232 161.5,113C 169.872,107.154 178.205,101.32 186.5,95.5 Z"/></g>
<g><path style="opacity:1" fill="#826d6d" d="M 48.5,110.5 C 49.7368,111.965 50.7368,113.632 51.5,115.5C 54.3548,120.557 57.6882,125.223 61.5,129.5C 61.8333,130.167 62.1667,130.833 62.5,131.5C 60.6357,132.113 58.3024,132.447 55.5,132.5C 50.3047,130.768 48.6381,127.268 50.5,122C 49.2986,121.097 48.4652,119.931 48,118.5C 47.3162,119.784 47.4829,120.951 48.5,122C 46.0904,122.758 45.0904,124.425 45.5,127C 45.7885,129.187 46.1218,131.354 46.5,133.5C 45.1779,133.33 44.0113,133.663 43,134.5C 42.5045,136.473 42.3379,138.473 42.5,140.5C 41.0388,138.648 40.0388,136.482 39.5,134C 39.7399,130.067 39.7399,126.067 39.5,122C 39.6894,119.705 41.0228,117.705 43.5,116C 43.1667,115.667 42.8333,115.333 42.5,115C 44.286,114.215 45.786,113.049 47,111.5C 48.1068,112.712 48.6068,112.379 48.5,110.5 Z"/></g>
<g><path style="opacity:1" fill="#c6ad9f" d="M 175.5,114.5 C 175.833,114.5 176.167,114.5 176.5,114.5C 176.328,115.492 176.662,116.158 177.5,116.5C 178.685,123.316 178.685,129.983 177.5,136.5C 177.779,129.063 177.112,121.73 175.5,114.5 Z"/></g>
<g><path style="opacity:1" fill="#361e11" d="M 136.5,89.5 C 137.239,89.369 137.906,89.5357 138.5,90C 138.142,98.0364 137.142,106.203 135.5,114.5C 134.407,117.253 132.574,117.92 130,116.5C 129.062,118.488 128.228,120.488 127.5,122.5C 126.778,122.082 126.278,121.416 126,120.5C 124.044,122.936 122.378,125.603 121,128.5C 120.667,128.167 120.333,127.833 120,127.5C 119.803,129.861 118.636,131.528 116.5,132.5C 115.28,132.113 114.613,131.28 114.5,130C 116.355,127.079 117.188,123.913 117,120.5C 116.329,121.252 115.496,121.586 114.5,121.5C 115.199,112.58 117.866,104.08 122.5,96C 122.167,95.6667 121.833,95.3333 121.5,95C 122.737,94.7679 123.737,94.2679 124.5,93.5C 128.558,92.2904 132.558,90.9571 136.5,89.5 Z"/></g>
<g><path style="opacity:1" fill="#3a1706" d="M 127.5,122.5 C 126.31,125.741 125.31,129.074 124.5,132.5C 124.865,133.902 125.699,134.902 127,135.5C 132.294,133.441 137.128,130.775 141.5,127.5C 141.167,128.167 140.833,128.833 140.5,129.5C 139.167,130.167 138.167,131.167 137.5,132.5C 130.526,139.141 122.526,144.141 113.5,147.5C 115.611,141.064 113.278,139.731 106.5,143.5C 105.5,143 104.5,142.5 103.5,142C 105.128,137.186 107.461,132.686 110.5,128.5C 112.246,126.416 113.579,124.083 114.5,121.5C 115.496,121.586 116.329,121.252 117,120.5C 117.188,123.913 116.355,127.079 114.5,130C 114.613,131.28 115.28,132.113 116.5,132.5C 118.636,131.528 119.803,129.861 120,127.5C 120.333,127.833 120.667,128.167 121,128.5C 122.378,125.603 124.044,122.936 126,120.5C 126.278,121.416 126.778,122.082 127.5,122.5 Z"/></g>
<g><path style="opacity:1" fill="#756a73" d="M 44.5,99.5 C 34.9499,107.626 31.2832,117.96 33.5,130.5C 36.4757,139.478 41.4757,147.144 48.5,153.5C 43.5213,150.521 39.5213,146.521 36.5,141.5C 29.9615,131.049 28.9615,120.049 33.5,108.5C 34.0722,106.745 34.9055,105.078 36,103.5C 38.8065,101.605 41.1398,99.2719 43,96.5C 44.0386,97.2438 44.5386,98.2438 44.5,99.5 Z"/></g>
<g><path style="opacity:1" fill="#48342a" d="M 175.5,125.5 C 175.664,128.187 175.497,130.854 175,133.5C 174.617,134.056 174.117,134.389 173.5,134.5C 173.649,133.448 173.483,132.448 173,131.5C 172.341,136.971 169.841,141.304 165.5,144.5C 169.681,137.792 172.181,130.459 173,122.5C 173.852,123.571 174.685,124.571 175.5,125.5 Z"/></g>
<g><path style="opacity:1" fill="#907e78" d="M 173.5,108.5 C 173.842,109.338 174.508,109.672 175.5,109.5C 175.5,109.833 175.5,110.167 175.5,110.5C 174.167,110.833 174.167,111.167 175.5,111.5C 175.5,112.5 175.5,113.5 175.5,114.5C 177.112,121.73 177.779,129.063 177.5,136.5C 177.784,138.415 177.451,140.081 176.5,141.5C 176.66,139.801 176.494,138.134 176,136.5C 173.055,143.405 168.888,149.405 163.5,154.5C 163.5,153.833 163.5,153.167 163.5,152.5C 168.401,147.365 171.734,141.365 173.5,134.5C 174.117,134.389 174.617,134.056 175,133.5C 175.497,130.854 175.664,128.187 175.5,125.5C 175.701,119.782 174.034,114.782 170.5,110.5C 171.5,109.833 172.5,109.167 173.5,108.5 Z"/></g>
<g><path style="opacity:1" fill="#603217" d="M 113.5,95.5 C 112.113,98.9256 110.78,102.426 109.5,106C 109.607,109.065 109.607,112.065 109.5,115C 108.139,116.584 107.472,118.418 107.5,120.5C 104.075,132.758 96.4085,141.424 84.5,146.5C 79.3898,144.443 74.7231,141.609 70.5,138C 72.3801,138.51 74.2134,138.343 76,137.5C 76.6667,138.167 77.3333,138.833 78,139.5C 79.7863,137.901 81.953,137.067 84.5,137C 88.973,132.527 93.473,128.027 98,123.5C 98.0408,121.112 98.8742,118.779 100.5,116.5C 100.742,112.652 100.409,108.985 99.5,105.5C 100.23,102.891 100.73,100.224 101,97.5C 102.107,98.7119 102.607,98.3786 102.5,96.5C 106.215,96.577 109.881,96.2436 113.5,95.5 Z"/></g>
<g><path style="opacity:1" fill="#491e08" d="M 110.5,128.5 C 107.461,132.686 105.128,137.186 103.5,142C 104.5,142.5 105.5,143 106.5,143.5C 113.278,139.731 115.611,141.064 113.5,147.5C 111.914,148.148 110.247,148.648 108.5,149C 101.964,149.29 95.6306,149.456 89.5,149.5C 88.1667,148.833 86.8333,148.167 85.5,147.5C 84.8333,147.5 84.5,147.167 84.5,146.5C 96.4085,141.424 104.075,132.758 107.5,120.5C 109.64,118.3 111.14,115.633 112,112.5C 111.818,116.572 110.985,120.572 109.5,124.5C 110.246,125.736 110.579,127.07 110.5,128.5 Z"/></g>
<g><path style="opacity:1" fill="#846861" d="M 62.5,131.5 C 63.8333,132.167 64.8333,133.167 65.5,134.5C 63.0533,139.055 59.8867,143.055 56,146.5C 54.2932,148.909 53.4598,151.575 53.5,154.5C 49.0426,150.385 45.3759,145.718 42.5,140.5C 42.3379,138.473 42.5045,136.473 43,134.5C 44.0113,133.663 45.1779,133.33 46.5,133.5C 46.1218,131.354 45.7885,129.187 45.5,127C 45.0904,124.425 46.0904,122.758 48.5,122C 47.4829,120.951 47.3162,119.784 48,118.5C 48.4652,119.931 49.2986,121.097 50.5,122C 48.6381,127.268 50.3047,130.768 55.5,132.5C 58.3024,132.447 60.6357,132.113 62.5,131.5 Z"/></g>
<g><path style="opacity:1" fill="#3c3232" d="M 140.5,129.5 C 141.628,132.769 143.794,135.103 147,136.5C 147.333,136.167 147.667,135.833 148,135.5C 148.442,137.679 149.442,138.345 151,137.5C 152.771,139.291 154.604,140.957 156.5,142.5C 155.272,144.01 155.272,145.51 156.5,147C 153.879,148.366 153.212,150.199 154.5,152.5C 153.833,153.833 152.833,154.833 151.5,155.5C 150.778,154.449 149.778,153.782 148.5,153.5C 147.89,152.609 147.557,151.609 147.5,150.5C 148.303,149.577 148.47,148.577 148,147.5C 143.508,143.179 140.008,138.179 137.5,132.5C 138.167,131.167 139.167,130.167 140.5,129.5 Z"/></g>
<g><path style="opacity:1" fill="#170907" d="M 137.5,132.5 C 140.008,138.179 143.508,143.179 148,147.5C 148.47,148.577 148.303,149.577 147.5,150.5C 132.564,152.759 117.564,153.093 102.5,151.5C 98.087,151.313 93.7536,150.646 89.5,149.5C 95.6306,149.456 101.964,149.29 108.5,149C 110.247,148.648 111.914,148.148 113.5,147.5C 122.526,144.141 130.526,139.141 137.5,132.5 Z"/></g>
<g><path style="opacity:1" fill="#5e4f53" d="M 46.5,105.5 C 47.4408,107.05 48.1075,108.716 48.5,110.5C 48.6068,112.379 48.1068,112.712 47,111.5C 45.786,113.049 44.286,114.215 42.5,115C 42.8333,115.333 43.1667,115.667 43.5,116C 41.0228,117.705 39.6894,119.705 39.5,122C 39.7399,126.067 39.7399,130.067 39.5,134C 40.0388,136.482 41.0388,138.648 42.5,140.5C 45.3759,145.718 49.0426,150.385 53.5,154.5C 53.5,154.833 53.5,155.167 53.5,155.5C 52.8333,155.5 52.5,155.833 52.5,156.5C 50.5956,156.262 49.2623,155.262 48.5,153.5C 41.4757,147.144 36.4757,139.478 33.5,130.5C 36.1648,123.594 38.9981,116.594 42,109.5C 43.3712,107.959 44.8712,106.625 46.5,105.5 Z"/></g>
<g><path style="opacity:1" fill="#a27b64" d="M 27.5,115.5 C 27.4251,123.654 29.2584,131.32 33,138.5C 33.7589,140.063 34.9256,141.063 36.5,141.5C 39.5213,146.521 43.5213,150.521 48.5,153.5C 49.2623,155.262 50.5956,156.262 52.5,156.5C 52.5106,158.017 53.1772,159.184 54.5,160C 56.7254,160.561 58.7254,161.561 60.5,163C 59.944,163.383 59.6107,163.883 59.5,164.5C 58.609,163.89 57.609,163.557 56.5,163.5C 55.8333,163.5 55.5,163.833 55.5,164.5C 54.5084,164.672 53.8417,164.338 53.5,163.5C 52.1266,163.657 50.7932,163.49 49.5,163C 50.056,162.617 50.3893,162.117 50.5,161.5C 49.609,160.89 48.609,160.557 47.5,160.5C 47.5,160.167 47.5,159.833 47.5,159.5C 48.8333,159.167 48.8333,158.833 47.5,158.5C 44.3121,155.632 41.1454,152.632 38,149.5C 37.6012,149.728 37.4346,150.062 37.5,150.5C 34.8556,147.52 32.189,144.52 29.5,141.5C 28.6143,142.325 28.281,143.325 28.5,144.5C 26.36,138.809 25.0266,132.809 24.5,126.5C 24.9768,122.564 25.9768,118.897 27.5,115.5 Z"/></g>
<g><path style="opacity:1" fill="#a9764f" d="M 37.5,150.5 C 40.2109,154.212 43.5442,157.212 47.5,159.5C 47.5,159.833 47.5,160.167 47.5,160.5C 47.0618,160.435 46.7284,160.601 46.5,161C 48.6857,161.604 48.8524,162.77 47,164.5C 46.586,164.043 46.086,163.709 45.5,163.5C 44.7348,164.612 43.7348,165.279 42.5,165.5C 38.4278,162.431 35.0944,158.765 32.5,154.5C 32.0679,153.29 31.4013,152.29 30.5,151.5C 30.6716,150.508 30.3382,149.842 29.5,149.5C 29.6716,148.508 29.3382,147.842 28.5,147.5C 28.5,146.5 28.5,145.5 28.5,144.5C 28.281,143.325 28.6143,142.325 29.5,141.5C 32.189,144.52 34.8556,147.52 37.5,150.5 Z"/></g>
<g><path style="opacity:1" fill="#000000" d="M 28.5,147.5 C 27.8333,148.167 27.8333,148.167 28.5,147.5 Z"/></g>
<g><path style="opacity:1" fill="#544d52" d="M 170.5,110.5 C 174.034,114.782 175.701,119.782 175.5,125.5C 174.685,124.571 173.852,123.571 173,122.5C 172.181,130.459 169.681,137.792 165.5,144.5C 162.703,146.795 160.036,149.295 157.5,152C 156.552,152.483 155.552,152.649 154.5,152.5C 153.212,150.199 153.879,148.366 156.5,147C 155.272,145.51 155.272,144.01 156.5,142.5C 157.15,142.196 157.817,141.863 158.5,141.5C 160.521,135.723 162.688,130.056 165,124.5C 166.375,126.937 166.875,129.603 166.5,132.5C 165.486,137.153 163.986,141.486 162,145.5C 170.485,135.73 172.319,124.897 167.5,113C 168.373,111.955 169.373,111.122 170.5,110.5 Z"/></g>
<g><path style="opacity:1" fill="#7c553e" d="M 176.5,141.5 C 176.613,144.049 175.946,146.382 174.5,148.5C 174.709,149.086 175.043,149.586 175.5,150C 174.244,150.417 173.577,151.25 173.5,152.5C 172.167,152.833 172.167,153.167 173.5,153.5C 173.672,154.492 173.338,155.158 172.5,155.5C 172.167,154.167 171.833,154.167 171.5,155.5C 170.662,155.842 170.328,156.508 170.5,157.5C 169.833,157.5 169.5,157.833 169.5,158.5C 168.833,158.5 168.5,158.833 168.5,159.5C 167.662,159.842 167.328,160.508 167.5,161.5C 166.833,161.5 166.5,161.833 166.5,162.5C 165.833,162.5 165.5,162.833 165.5,163.5C 164.833,163.5 164.5,163.833 164.5,164.5C 163.833,164.5 163.5,164.833 163.5,165.5C 162.833,165.5 162.5,165.833 162.5,166.5C 162.167,166.5 161.833,166.5 161.5,166.5C 160.275,164.551 160.942,163.218 163.5,162.5C 163.537,160.678 163.204,158.678 162.5,156.5C 162.833,155.833 163.167,155.167 163.5,154.5C 168.888,149.405 173.055,143.405 176,136.5C 176.494,138.134 176.66,139.801 176.5,141.5 Z"/></g>
<g><path style="opacity:1" fill="#000000" d="M 29.5,149.5 C 28.8333,150.167 28.8333,150.167 29.5,149.5 Z"/></g>
<g><path style="opacity:1" fill="#000000" d="M 30.5,151.5 C 29.8333,152.167 29.8333,152.167 30.5,151.5 Z"/></g>
<g><path style="opacity:1" fill="#764c27" d="M 65.5,134.5 C 66.6266,135.122 67.6266,135.955 68.5,137C 64.8467,142.098 65.1801,146.764 69.5,151C 68.8333,151.667 68.1667,152.333 67.5,153C 72.3525,153.761 77.3525,154.928 82.5,156.5C 84.9544,154.341 87.6211,154.008 90.5,155.5C 101.729,158.974 113.062,162.141 124.5,165C 111.913,167.799 99.2463,168.132 86.5,166C 84.5975,165.801 83.0975,164.967 82,163.5C 79.1158,164.203 75.9491,164.37 72.5,164C 65.9042,161.701 59.5709,158.868 53.5,155.5C 53.5,155.167 53.5,154.833 53.5,154.5C 53.4598,151.575 54.2932,148.909 56,146.5C 59.8867,143.055 63.0533,139.055 65.5,134.5 Z"/></g>
<g><path style="opacity:1" fill="#764f34" d="M 173.5,134.5 C 171.734,141.365 168.401,147.365 163.5,152.5C 161.5,154.167 159.5,155.833 157.5,157.5C 157.5,156.5 157.5,155.5 157.5,154.5C 154.833,155.5 152.167,156.5 149.5,157.5C 150.167,156.833 150.833,156.167 151.5,155.5C 152.833,154.833 153.833,153.833 154.5,152.5C 155.552,152.649 156.552,152.483 157.5,152C 160.036,149.295 162.703,146.795 165.5,144.5C 169.841,141.304 172.341,136.971 173,131.5C 173.483,132.448 173.649,133.448 173.5,134.5 Z"/></g>
<g><path style="opacity:1" fill="#000000" d="M 173.5,152.5 C 174.833,153.167 174.833,153.167 173.5,152.5 Z"/></g>
<g><path style="opacity:1" fill="#000000" d="M 32.5,154.5 C 31.8333,155.167 31.8333,155.167 32.5,154.5 Z"/></g>
<g><path style="opacity:1" fill="#ded1c9" d="M 47.5,158.5 C 47.5,158.833 47.5,159.167 47.5,159.5C 43.5442,157.212 40.2109,154.212 37.5,150.5C 37.4346,150.062 37.6012,149.728 38,149.5C 41.1454,152.632 44.3121,155.632 47.5,158.5 Z"/></g>
<g><path style="opacity:1" fill="#41200d" d="M 147.5,150.5 C 147.557,151.609 147.89,152.609 148.5,153.5C 147.542,153.953 146.708,154.619 146,155.5C 144.612,154.446 143.112,154.28 141.5,155C 142.5,155.333 143.5,155.667 144.5,156C 132.934,156.152 121.267,155.485 109.5,154C 106.996,153.302 104.663,152.469 102.5,151.5C 117.564,153.093 132.564,152.759 147.5,150.5 Z"/></g>
<g><path style="opacity:1" fill="#542f11" d="M 85.5,147.5 C 86.8333,148.167 88.1667,148.833 89.5,149.5C 93.7536,150.646 98.087,151.313 102.5,151.5C 104.663,152.469 106.996,153.302 109.5,154C 121.267,155.485 132.934,156.152 144.5,156C 143.5,155.667 142.5,155.333 141.5,155C 143.112,154.28 144.612,154.446 146,155.5C 146.708,154.619 147.542,153.953 148.5,153.5C 149.778,153.782 150.778,154.449 151.5,155.5C 150.833,156.167 150.167,156.833 149.5,157.5C 148.391,157.557 147.391,157.89 146.5,158.5C 144.897,157.323 143.564,157.489 142.5,159C 140.667,159.167 138.833,159.333 137,159.5C 130.756,158.177 124.423,157.177 118,156.5C 112.381,157.405 106.881,157.405 101.5,156.5C 98.6594,155.025 95.6594,153.859 92.5,153C 91.8742,152.25 91.3742,151.416 91,150.5C 89.9887,151.337 88.8221,151.67 87.5,151.5C 86.3995,150.395 85.7329,149.062 85.5,147.5 Z"/></g>
<g><path style="opacity:1" fill="#000000" d="M 171.5,155.5 C 171.833,155.5 172.167,155.5 172.5,155.5C 172.315,156.17 171.981,156.17 171.5,155.5 Z"/></g>
<g><path style="opacity:1" fill="#673e1d" d="M 146.5,158.5 C 132.021,166.701 116.354,170.368 99.5,169.5C 82.528,169.675 66.8613,165.342 52.5,156.5C 52.5,155.833 52.8333,155.5 53.5,155.5C 59.5709,158.868 65.9042,161.701 72.5,164C 75.9491,164.37 79.1158,164.203 82,163.5C 83.0975,164.967 84.5975,165.801 86.5,166C 99.2463,168.132 111.913,167.799 124.5,165C 113.062,162.141 101.729,158.974 90.5,155.5C 90.6107,154.883 90.944,154.383 91.5,154C 89.9336,153.392 88.6002,152.558 87.5,151.5C 88.8221,151.67 89.9887,151.337 91,150.5C 91.3742,151.416 91.8742,152.25 92.5,153C 95.6594,153.859 98.6594,155.025 101.5,156.5C 106.881,157.405 112.381,157.405 118,156.5C 124.423,157.177 130.756,158.177 137,159.5C 138.833,159.333 140.667,159.167 142.5,159C 143.564,157.489 144.897,157.323 146.5,158.5 Z"/></g>
<g><path style="opacity:1" fill="#000000" d="M 170.5,157.5 C 171.833,158.167 171.833,158.167 170.5,157.5 Z"/></g>
<g><path style="opacity:1" fill="#000000" d="M 169.5,158.5 C 169.833,158.5 170.167,158.5 170.5,158.5C 170.315,159.17 169.981,159.17 169.5,158.5 Z"/></g>
<g><path style="opacity:1" fill="#000000" d="M 168.5,159.5 C 168.833,159.5 169.167,159.5 169.5,159.5C 169.672,160.492 169.338,161.158 168.5,161.5C 168.5,160.833 168.5,160.167 168.5,159.5 Z"/></g>
<g><path style="opacity:1" fill="#000000" d="M 167.5,161.5 C 167.833,161.5 168.167,161.5 168.5,161.5C 168.315,162.17 167.981,162.17 167.5,161.5 Z"/></g>
<g><path style="opacity:1" fill="#000000" d="M 166.5,162.5 C 166.833,162.5 167.167,162.5 167.5,162.5C 167.315,163.17 166.981,163.17 166.5,162.5 Z"/></g>
<g><path style="opacity:1" fill="#000000" d="M 165.5,163.5 C 165.833,163.5 166.167,163.5 166.5,163.5C 166.315,164.17 165.981,164.17 165.5,163.5 Z"/></g>
<g><path style="opacity:1" fill="#000000" d="M 164.5,164.5 C 164.833,164.5 165.167,164.5 165.5,164.5C 165.315,165.17 164.981,165.17 164.5,164.5 Z"/></g>
<g><path style="opacity:1" fill="#000000" d="M 163.5,165.5 C 163.833,165.5 164.167,165.5 164.5,165.5C 164.315,166.17 163.981,166.17 163.5,165.5 Z"/></g>
<g><path style="opacity:1" fill="#e1dbdc" d="M 56.5,163.5 C 57.609,163.557 58.609,163.89 59.5,164.5C 62.6887,166.26 66.0221,167.76 69.5,169C 68.9056,169.464 68.2389,169.631 67.5,169.5C 63.2025,168.345 59.2025,166.679 55.5,164.5C 56.1667,164.5 56.5,164.167 56.5,163.5 Z"/></g>
<g><path style="opacity:1" fill="#4b3126" d="M 162.5,156.5 C 163.204,158.678 163.537,160.678 163.5,162.5C 160.942,163.218 160.275,164.551 161.5,166.5C 161.5,166.833 161.5,167.167 161.5,167.5C 160.167,167.833 160.167,168.167 161.5,168.5C 161.027,169.906 160.027,170.573 158.5,170.5C 158.167,169.167 157.833,169.167 157.5,170.5C 156.167,170.833 156.167,171.167 157.5,171.5C 157.158,172.338 156.492,172.672 155.5,172.5C 155.167,171.167 154.833,171.167 154.5,172.5C 153.167,172.833 153.167,173.167 154.5,173.5C 154.158,174.338 153.492,174.672 152.5,174.5C 152.5,173.833 152.167,173.5 151.5,173.5C 149.548,172.215 147.882,170.549 146.5,168.5C 147.664,168.835 148.997,168.835 150.5,168.5C 150.145,167.478 149.478,166.811 148.5,166.5C 153.129,163.179 157.796,159.846 162.5,156.5 Z"/></g>
<g><path style="opacity:1" fill="#000000" d="M 162.5,166.5 C 162.833,166.5 163.167,166.5 163.5,166.5C 163.315,167.17 162.981,167.17 162.5,166.5 Z"/></g>
<g><path style="opacity:1" fill="#000000" d="M 161.5,167.5 C 161.833,167.5 162.167,167.5 162.5,167.5C 162.315,168.17 161.981,168.17 161.5,167.5 Z"/></g>
<g><path style="opacity:1" fill="#50413f" d="M 163.5,152.5 C 163.5,153.167 163.5,153.833 163.5,154.5C 163.167,155.167 162.833,155.833 162.5,156.5C 157.796,159.846 153.129,163.179 148.5,166.5C 140.934,169.212 133.268,171.545 125.5,173.5C 126.167,172.833 126.833,172.167 127.5,171.5C 138.198,168.486 148.198,163.82 157.5,157.5C 159.5,155.833 161.5,154.167 163.5,152.5 Z"/></g>
<g><path style="opacity:1" fill="#936748" d="M 47.5,160.5 C 48.609,160.557 49.609,160.89 50.5,161.5C 50.3893,162.117 50.056,162.617 49.5,163C 50.7932,163.49 52.1266,163.657 53.5,163.5C 53.8417,164.338 54.5084,164.672 55.5,164.5C 59.2025,166.679 63.2025,168.345 67.5,169.5C 69.7791,170.651 72.1124,171.651 74.5,172.5C 71.8858,172.277 70.2191,173.444 69.5,176C 67.913,176.862 66.2464,177.529 64.5,178C 65.056,178.383 65.3893,178.883 65.5,179.5C 62.8333,178.5 60.1667,177.5 57.5,176.5C 57.1583,175.662 56.4916,175.328 55.5,175.5C 55.1583,174.662 54.4916,174.328 53.5,174.5C 51.9255,172.2 49.9255,171.367 47.5,172C 48.2583,170.636 47.7583,169.469 46,168.5C 44.1598,169.833 43.6598,169.666 44.5,168C 43.6195,167.292 42.9528,166.458 42.5,165.5C 43.7348,165.279 44.7348,164.612 45.5,163.5C 46.086,163.709 46.586,164.043 47,164.5C 48.8524,162.77 48.6857,161.604 46.5,161C 46.7284,160.601 47.0618,160.435 47.5,160.5 Z"/></g>
<g><path style="opacity:1" fill="#000000" d="M 157.5,170.5 C 157.833,170.5 158.167,170.5 158.5,170.5C 158.315,171.17 157.981,171.17 157.5,170.5 Z"/></g>
<g><path style="opacity:1" fill="#8b6a4f" d="M 157.5,157.5 C 148.198,163.82 138.198,168.486 127.5,171.5C 122.032,173.141 116.365,174.141 110.5,174.5C 98.431,174.831 86.431,174.164 74.5,172.5C 72.1124,171.651 69.7791,170.651 67.5,169.5C 68.2389,169.631 68.9056,169.464 69.5,169C 66.0221,167.76 62.6887,166.26 59.5,164.5C 59.6107,163.883 59.944,163.383 60.5,163C 58.7254,161.561 56.7254,160.561 54.5,160C 53.1772,159.184 52.5106,158.017 52.5,156.5C 66.8613,165.342 82.528,169.675 99.5,169.5C 116.354,170.368 132.021,166.701 146.5,158.5C 147.391,157.89 148.391,157.557 149.5,157.5C 152.167,156.5 154.833,155.5 157.5,154.5C 157.5,155.5 157.5,156.5 157.5,157.5 Z"/></g>
<g><path style="opacity:1" fill="#000000" d="M 154.5,172.5 C 154.833,172.5 155.167,172.5 155.5,172.5C 155.315,173.17 154.981,173.17 154.5,172.5 Z"/></g>
<g><path style="opacity:1" fill="#000000" d="M 53.5,174.5 C 52.8333,175.167 52.8333,175.167 53.5,174.5 Z"/></g>
<g><path style="opacity:1" fill="#33211a" d="M 148.5,166.5 C 149.478,166.811 150.145,167.478 150.5,168.5C 148.997,168.835 147.664,168.835 146.5,168.5C 147.882,170.549 149.548,172.215 151.5,173.5C 151.5,173.833 151.5,174.167 151.5,174.5C 150.508,174.328 149.842,174.662 149.5,175.5C 148.508,175.328 147.842,175.662 147.5,176.5C 146.167,176.833 146.167,177.167 147.5,177.5C 146.167,177.833 144.833,178.167 143.5,178.5C 140.982,179.264 138.649,180.264 136.5,181.5C 129.342,183.789 122.009,185.123 114.5,185.5C 108.158,185.666 101.825,185.5 95.5,185C 104.095,186.132 111.095,183.466 116.5,177C 116.167,176.667 115.833,176.333 115.5,176C 118.799,174.936 122.132,174.102 125.5,173.5C 133.268,171.545 140.934,169.212 148.5,166.5 Z"/></g>
<g><path style="opacity:1" fill="#000000" d="M 151.5,174.5 C 151.833,174.5 152.167,174.5 152.5,174.5C 152.315,175.17 151.981,175.17 151.5,174.5 Z"/></g>
<g><path style="opacity:1" fill="#000000" d="M 55.5,175.5 C 54.8333,176.167 54.8333,176.167 55.5,175.5 Z"/></g>
<g><path style="opacity:1" fill="#724d33" d="M 74.5,172.5 C 86.431,174.164 98.431,174.831 110.5,174.5C 106.98,177.614 102.98,180.281 98.5,182.5C 98.0894,181.738 97.9227,180.738 98,179.5C 96.2417,180.469 95.7417,181.636 96.5,183C 92.8333,183.333 89.1667,183.667 85.5,184C 87.3817,184.198 89.0484,184.698 90.5,185.5C 81.8025,184.909 73.4691,182.909 65.5,179.5C 65.3893,178.883 65.056,178.383 64.5,178C 66.2464,177.529 67.913,176.862 69.5,176C 70.2191,173.444 71.8858,172.277 74.5,172.5 Z"/></g>
<g><path style="opacity:1" fill="#000000" d="M 149.5,175.5 C 150.833,176.167 150.833,176.167 149.5,175.5 Z"/></g>
<g><path style="opacity:1" fill="#000000" d="M 57.5,176.5 C 56.8333,177.167 56.8333,177.167 57.5,176.5 Z"/></g>
<g><path style="opacity:1" fill="#000000" d="M 147.5,177.5 C 147.5,177.167 147.5,176.833 147.5,176.5C 148.167,176.5 148.833,176.5 149.5,176.5C 149.158,177.338 148.492,177.672 147.5,177.5 Z"/></g>
<g><path style="opacity:1" fill="#593f2e" d="M 127.5,171.5 C 126.833,172.167 126.167,172.833 125.5,173.5C 122.132,174.102 118.799,174.936 115.5,176C 115.833,176.333 116.167,176.667 116.5,177C 111.095,183.466 104.095,186.132 95.5,185C 101.825,185.5 108.158,185.666 114.5,185.5C 106.599,186.813 98.5985,186.813 90.5,185.5C 89.0484,184.698 87.3817,184.198 85.5,184C 89.1667,183.667 92.8333,183.333 96.5,183C 95.7417,181.636 96.2417,180.469 98,179.5C 97.9227,180.738 98.0894,181.738 98.5,182.5C 102.98,180.281 106.98,177.614 110.5,174.5C 116.365,174.141 122.032,173.141 127.5,171.5 Z"/></g>
<g><path style="opacity:1" fill="#000000" d="M 143.5,178.5 C 144.833,179.167 144.833,179.167 143.5,178.5 Z"/></g>
<g><path style="opacity:1" fill="#000000" d="M 136.5,181.5 C 137.833,182.167 137.833,182.167 136.5,181.5 Z"/></g>
</svg>
